<svg version="1.1" id="Слой_1" xmlns="http://www.w3.org/2000/svg" x="0" y="0" viewBox="0 0 148.2 39.2" xml:space="preserve"><style/><g id="logo" transform="translate(-140 -34.417)"><path id="Rectangle_1" d="M284.8 36.6c1.2 1.2 1.2 3.2 0 4.4l-9.9 9.9c-1.2 1.2-3.2 1.2-4.4 0-1.2-1.2-1.2-3.2 0-4.4l9.9-9.9c1.3-1.2 3.2-1.2 4.4 0z" fill="#00c2ff"/><path id="Rectangle_2" d="M286 47.2c1.2 1.2 1.2 3.2 0 4.4l-9.9 9.9c-1.2 1.2-3.2 1.2-4.4 0-1.2-1.2-1.2-3.2 0-4.4l9.9-9.9c1.2-1.2 3.2-1.2 4.4 0z" fill="#00cc80"/></g></svg>