<?xml version="1.0" encoding="utf-8"?>
<!-- Generator: Adobe Illustrator 22.1.0, SVG Export Plug-In . SVG Version: 6.00 Build 0)  -->
<svg version="1.1" id="Слой_1" xmlns="http://www.w3.org/2000/svg" xmlns:xlink="http://www.w3.org/1999/xlink" x="0px" y="0px"
	 viewBox="0 0 148.2 39.2" style="enable-background:new 0 0 148.2 39.2;" xml:space="preserve">
<style type="text/css">
	.st0{fill:#00C2FF;}
	.st1{fill:#00CC80;}
	.st2{display:none;}
	.st3{font-family:'MyriadPro-Regular';}
	.st4{font-size:21.6501px;}
</style>
<g id="logo" transform="translate(-140 -34.417)">
	<path id="Rectangle_1" class="st0" d="M284.8,36.6L284.8,36.6c1.2,1.2,1.2,3.2,0,4.4l-9.9,9.9c-1.2,1.2-3.2,1.2-4.4,0l0,0
		c-1.2-1.2-1.2-3.2,0-4.4l9.9-9.9C281.7,35.4,283.6,35.4,284.8,36.6z"/>
	<path id="Rectangle_2" class="st1" d="M286,47.2L286,47.2c1.2,1.2,1.2,3.2,0,4.4l-9.9,9.9c-1.2,1.2-3.2,1.2-4.4,0l0,0
		c-1.2-1.2-1.2-3.2,0-4.4l9.9-9.9C282.8,46,284.8,46,286,47.2z"/>
</g>

<g class="st2">
</g>
</svg>
