<svg xmlns="http://www.w3.org/2000/svg" width="633" height="346.034"><defs><linearGradient id="a" x1=".468" y1=".466" x2="-.535" y2=".461" gradientUnits="objectBoundingBox"><stop offset="0" stop-color="#fff"/><stop offset="1" stop-color="gray"/></linearGradient></defs><path data-name="Path 11" d="M880 556.822h428.665v-151.2H880z" transform="translate(-675.665 -210.789)" fill="url(#a)"/><path data-name="Path 10" d="M2 70.856l138.754 83.638" fill="none" stroke="#00c2ff" stroke-linecap="round" stroke-width="4" stroke-dasharray="14 12"/><g transform="translate(43.016 79.723)"><path data-name="Path 1" d="M61.137 24.575l61.136 36.561-61.136 37.48L.001 61.136z" fill="#4eedff"/><path data-name="Path 3" d="M0 61.137v73.9l60.952 37.981.026-74.595z" fill="#00c2ff"/><path data-name="Path 5" d="M8.567 81.42v4.432l3.656 2.278v-4.474zm0 8.666v4.432l3.656 2.278v-4.474zm0 8.666v4.432l3.656 2.278v-4.474zm0 8.666v4.432l3.656 2.278v-4.474zm0 8.666v4.432l3.656 2.278v-4.474zm0 8.666v4.432l3.656 2.278v-4.474z" fill="#c9f2ff"/><path data-name="Path 5" d="M15.409 85.981v4.432l19.042 11.54v-4.474z" fill="#0058cb"/><path data-name="Path 6" d="M39.15 99.916v4.432l12.6 7.278v-4.474zm0 8.257v4.432l12.6 7.278v-4.474zm0 8.258v4.432l12.6 7.278v-4.474zm0 8.258v4.432l12.6 7.278v-4.474zm0 8.773v4.432l12.6 7.278v-4.474zm0 8.774v4.432l12.6 7.278v-4.474z" fill="#84ffea"/><path data-name="Path 5" d="M15.409 94.191v4.432l19.042 11.54v-4.474zm0 8.21v4.432l19.042 11.54v-4.474zm0 8.666v4.432l19.042 11.54v-4.474zm0 8.666v4.432l19.042 11.54v-4.474zm0 8.666v4.432l19.042 11.54v-4.474z" fill="#0058cb"/><path data-name="Path 4" d="M122.273 61.137v73.9l-61.268 37.98-.026-74.595z" fill="#0060b4"/><path data-name="Path 8" d="M114.004 78.051v4.432l-3.656 2.278v-4.474z" fill="#c9f2ff"/><path data-name="Path 7" d="M106.271 82.612v4.432l-19.042 11.54V94.11z" fill="#30ffc7"/><ellipse data-name="Ellipse 1" cx="11.79" cy="17.404" rx="11.79" ry="17.404" transform="rotate(17 -285.431 340.06)" fill="#002a4e"/></g><g data-name="pc1" transform="translate(80.189)"><path data-name="Path 1" d="M122.273 49.15l122.273 73.123-122.273 74.959L0 122.272z" fill="#4eedff"/><path data-name="Path 3" d="M0 122.273v147.8l121.9 75.962.052-149.19z" fill="#00c2ff"/><path data-name="Path 5" d="M17.135 162.839v8.864l7.311 4.556v-8.948zm0 17.332v8.864l7.311 4.556v-8.948zm0 17.333v8.864l7.311 4.556v-8.948zm0 17.332v8.864l7.311 4.556v-8.948zm0 17.332v8.864l7.311 4.556v-8.948zm0 17.332v8.864l7.311 4.556v-8.948z" fill="#c9f2ff"/><path data-name="Path 5" d="M30.819 171.961v8.864l38.084 23.08v-8.948z" fill="#0058cb"/><path data-name="Path 6" d="M78.3 199.831v8.864l25.207 14.556v-8.948zm0 16.516v8.864l25.207 14.556v-8.948zm0 16.515v8.864l25.207 14.556v-8.948zm0 16.515v8.864l25.207 14.556v-8.948zm0 17.548v8.864l25.207 14.556v-8.948zm0 17.548v8.864l25.207 14.556v-8.948z" fill="#84ffea"/><path data-name="Path 5" d="M30.819 188.381v8.864l38.084 23.08v-8.948zm0 16.42v8.864l38.084 23.08v-8.948zm0 17.333v8.864l38.084 23.08v-8.948zm0 17.332v8.864l38.084 23.08v-8.948zm0 17.332v8.864l38.084 23.08v-8.948z" fill="#0058cb"/><path data-name="Path 4" d="M244.551 122.273v147.8l-122.542 75.961-.053-149.19z" fill="#0060b4"/><path data-name="Path 8" d="M228.008 156.102v8.864l-7.311 4.556v-8.948z" fill="#c9f2ff"/><path data-name="Path 7" d="M212.543 165.224v8.864l-38.084 23.08v-8.948z" fill="#30ffc7"/><ellipse data-name="Ellipse 1" cx="23.58" cy="34.809" rx="23.58" ry="34.809" transform="rotate(17 -570.866 680.118)" fill="#002a4e"/></g><path data-name="Path 9" d="M254.643 228.056l138.754 83.638" fill="none" stroke="#00c2ff" stroke-linecap="round" stroke-width="4" stroke-dasharray="14 12"/></svg>