<svg xmlns="http://www.w3.org/2000/svg" viewBox="0 0 512 512"><linearGradient id="a" gradientUnits="userSpaceOnUse" x1="0" y1="258" x2="512" y2="258" gradientTransform="matrix(1 0 0 -1 0 514)"><stop offset="0" stop-color="#00f2fe"/><stop offset=".021" stop-color="#03effe"/><stop offset=".293" stop-color="#24d2fe"/><stop offset=".554" stop-color="#3cbdfe"/><stop offset=".796" stop-color="#4ab0fe"/><stop offset="1" stop-color="#4facfe"/></linearGradient><path d="M120 203H80.481C87.157 112 163.326 40 256 40c73.334 0 139.692 46.19 165.125 114.939 3.832 10.359 15.336 15.65 25.697 11.819 10.359-3.833 15.651-15.337 11.819-25.697-15.158-40.976-42.087-76.04-77.874-101.402C344.157 13.714 301.013 0 256 0c-57.695 0-111.938 22.468-152.735 63.265C63 103.53 40.605 156.894 40.027 213.747 16.125 227.597 0 253.443 0 283v68c0 44.112 35.888 80 80 80h40c11.046 0 20-8.954 20-20V223c0-11.046-8.954-20-20-20zm-20 188H80c-22.056 0-40-17.944-40-40v-68c0-22.056 17.944-40 40-40h20v148zm332-188h-40c-11.046 0-20 8.954-20 20v209c0 11.028-8.972 20-20 20h-61v.634C284.178 440.331 271.064 432 256 432c-22.091 0-40 17.909-40 40s17.909 40 40 40c15.064 0 28.178-8.331 35-20.634V492h61c33.084 0 60-26.916 60-60v-1h20c44.112 0 80-35.888 80-80v-68c0-44.112-35.888-80-80-80zm40 148c0 22.056-17.944 40-40 40h-20V243h20c22.056 0 40 17.944 40 40v68z" fill="url(#a)"/></svg>