<svg height="512" width="512" xmlns="http://www.w3.org/2000/svg"><linearGradient id="a" gradientUnits="userSpaceOnUse" x1="26.5" x2="485.5" y1="256" y2="256"><stop offset="0" stop-color="#00f2fe"/><stop offset=".021" stop-color="#03effe"/><stop offset=".293" stop-color="#24d2fe"/><stop offset=".554" stop-color="#3cbdfe"/><stop offset=".796" stop-color="#4ab0fe"/><stop offset="1" stop-color="#4facfe"/></linearGradient><path d="M380.5 432c0 44.112-35.888 80-80 80h-194c-44.112 0-80-35.888-80-80V80c0-44.112 35.888-80 80-80h194c44.112 0 80 35.888 80 80 0 11.046-8.954 20-20 20s-20-8.954-20-20c0-22.056-17.944-40-40-40h-194c-22.056 0-40 17.944-40 40v352c0 22.056 17.944 40 40 40h194c22.056 0 40-17.944 40-40 0-11.046 8.954-20 20-20s20 8.954 20 20zm-197-10.878c0 11.046 8.954 20 20 20s20-8.954 20-20-8.954-20-20-20-20 8.954-20 20zm60-330c0-11.046-8.954-20-20-20h-40c-11.046 0-20 8.954-20 20s8.954 20 20 20h40c11.046 0 20-8.955 20-20zm241.744 140.189l-15.569 96.379c-4.721 29.222-29.631 50.432-59.232 50.432h-99.626a60.035 60.035 0 01-39.068-14.462 60.034 60.034 0 01-20.235-36.415l-14.782-96.083a20 20 0 0119.767-23.041h43.983V192c0-32.525 26.916-58.986 60-58.986s60 26.461 60 58.986v16.122H465.5a19.997 19.997 0 0115.228 7.035 19.995 19.995 0 014.516 16.154zm-144.761-23.189h40V192c0-10.469-8.972-18.986-20-18.986s-20 8.517-20 18.986zm101.527 40H279.812l11.237 73.042c1.512 9.827 9.825 16.958 19.768 16.958h99.626c9.867 0 18.171-7.07 19.744-16.811z" fill="url(#a)"/></svg>